HIERARCHY
ROOT teapot3
{
	OFFSET 0.000000 0.000000 0.000000
	CHANNELS 6 Xposition Yposition Zposition Yrotation Xrotation Zrotation
	End Site
	{
		OFFSET 0.000000 0.000000 0.000000
	}
}
MOTION
Frames: 122
Frame Time: 0.008333334
1.410255 3.945628 2.532712 -127.689300 2.554407 4.826889 
1.407120 3.945021 2.533840 -128.710600 2.599645 4.665120 
1.403466 3.945976 2.534794 -129.868600 2.620350 4.695386 
1.399804 3.945626 2.535738 -130.988600 2.611228 4.822487 
1.396641 3.945539 2.536896 -132.062500 2.660328 4.723598 
1.392775 3.946527 2.537650 -133.209500 2.740097 4.788236 
1.389032 3.946265 2.538825 -134.316500 2.853608 4.767496 
1.385871 3.946313 2.540110 -135.401800 2.881306 4.684042 
1.382093 3.946436 2.540688 -136.529700 2.885044 4.750167 
1.378551 3.946566 2.541345 -137.565500 2.958650 4.709218 
1.375097 3.946933 2.541979 -138.682700 3.030896 4.697064 
1.371803 3.946983 2.542492 -139.818000 3.108418 4.690586 
1.369125 3.946984 2.542332 -140.932100 3.102580 4.612323 
1.365870 3.947502 2.542511 -142.043600 3.184433 4.673195 
1.363243 3.947164 2.542656 -143.177400 3.256774 4.572072 
1.360409 3.947236 2.542925 -144.308400 3.285761 4.522868 
1.357058 3.947354 2.542752 -145.535900 3.325422 4.591105 
1.355065 3.947519 2.542798 -146.605000 3.428203 4.469925 
1.351706 3.947758 2.543602 -147.740300 3.529620 4.506391 
1.348656 3.947925 2.543779 -148.903400 3.549981 4.485943 
1.345579 3.947890 2.544800 -150.118300 3.606594 4.457847 
1.342450 3.947897 2.545779 -151.341500 3.670535 4.424072 
1.338864 3.947750 2.547181 -152.606700 3.709991 4.368878 
1.335169 3.947527 2.549453 -153.976000 3.722211 4.384253 
1.331987 3.948567 2.551374 -155.329800 3.883667 4.318636 
1.328156 3.948391 2.553470 -156.729100 3.878157 4.269853 
1.324306 3.948647 2.556672 -158.189700 3.908602 4.269502 
1.320730 3.949083 2.559678 -159.592000 3.982414 4.237922 
1.317016 3.948879 2.563198 -161.084100 4.038358 4.145141 
1.313587 3.949025 2.566787 -162.618700 4.072802 4.093708 
1.309947 3.949523 2.570557 -164.189400 4.120199 4.077970 
1.307159 3.949554 2.574964 -165.759000 4.191461 4.022663 
1.303683 3.949991 2.578119 -167.336400 4.251030 4.036087 
1.300189 3.950354 2.577208 -168.760800 4.347084 3.946892 
1.296915 3.949977 2.574050 -170.035100 4.364490 3.952045 
1.294222 3.949910 2.569850 -171.304600 4.442469 3.969011 
1.291466 3.949887 2.565851 -172.519400 4.530124 3.948497 
1.288346 3.950227 2.562556 -173.776600 4.578105 3.868822 
1.285433 3.949958 2.559336 -174.992300 4.593280 3.897165 
1.283411 3.949869 2.556403 -176.157700 4.643085 3.884925 
1.280791 3.949769 2.554384 -177.330800 4.661351 3.828350 
1.278292 3.950042 2.553226 -178.428500 4.741020 3.723501 
1.275982 3.949991 2.551423 -179.539300 4.740974 3.691068 
1.274443 3.949255 2.550809 179.406800 4.761112 3.650383 
1.272953 3.949579 2.549593 178.393100 4.807762 3.625177 
1.271042 3.949921 2.549524 177.464600 4.818120 3.634667 
1.269176 3.949484 2.549454 176.539100 4.880162 3.602431 
1.267641 3.949594 2.549650 175.631000 4.859054 3.531650 
1.266484 3.950114 2.550350 174.761300 4.881754 3.442338 
1.265031 3.950491 2.551199 173.982000 4.957799 3.451754 
1.263757 3.950418 2.552017 173.205600 4.916076 3.443936 
1.262004 3.950463 2.553210 172.476100 4.993281 3.351870 
1.260445 3.950759 2.553953 171.781800 4.993374 3.340479 
1.258857 3.950593 2.555724 171.098100 4.953647 3.293418 
1.257898 3.950839 2.556513 170.475700 4.971212 3.258746 
1.256384 3.950988 2.557151 169.870700 4.970459 3.224016 
1.255844 3.951104 2.557972 169.318900 5.001568 3.189005 
1.254451 3.951242 2.558852 168.836500 5.009597 3.171529 
1.253721 3.950952 2.559486 168.373700 4.984250 3.121014 
1.252361 3.951314 2.560361 167.922700 5.038658 3.106054 
1.251343 3.951522 2.561050 167.554700 5.089285 3.072637 
1.250468 3.951435 2.561725 167.202300 5.058671 3.029720 
1.249300 3.951218 2.562141 166.848400 5.030309 3.095418 
1.248431 3.951280 2.562677 166.522000 5.017231 3.029696 
1.247336 3.951630 2.563247 166.270000 5.033120 3.026356 
1.246969 3.951474 2.563563 166.017600 5.049577 2.982190 
1.246504 3.951684 2.564023 165.830500 5.055287 2.953427 
1.246163 3.951554 2.564407 165.685300 5.063097 2.950694 
1.245604 3.952034 2.564825 165.517300 5.085678 3.011472 
1.245584 3.951891 2.565326 165.454800 5.067581 2.961779 
1.245262 3.951995 2.565530 165.392600 5.076998 2.971799 
1.245217 3.951688 2.565771 165.325400 5.068630 2.921410 
1.244867 3.951881 2.565809 165.303600 5.080823 2.971960 
1.245172 3.951596 2.565867 165.292200 5.065746 2.901310 
1.245056 3.951564 2.565926 165.309000 5.079848 2.896344 
1.244947 3.951694 2.565831 165.307700 5.079451 2.937050 
1.244969 3.951632 2.565856 165.298000 5.083852 2.937137 
1.245286 3.951747 2.565488 165.292600 5.079579 2.954544 
1.245281 3.951644 2.565440 165.302800 5.070622 2.921610 
1.245254 3.951657 2.565349 165.305500 5.082518 2.909724 
1.245362 3.951635 2.565017 165.315400 5.084142 2.917062 
1.245337 3.951705 2.565019 165.295300 5.100327 2.932971 
1.245193 3.951481 2.565161 165.329300 5.084915 2.906750 
1.245078 3.951487 2.565037 165.309200 5.078823 2.909939 
1.245026 3.951418 2.565030 165.305900 5.093384 2.898348 
1.244923 3.951367 2.565180 165.295400 5.076334 2.903157 
1.245015 3.951566 2.565202 165.297800 5.064540 2.916960 
1.245084 3.951641 2.565150 165.307200 5.092662 2.922494 
1.245203 3.951393 2.565050 165.305400 5.040660 2.905537 
1.245018 3.951530 2.565399 165.312300 5.055651 2.956178 
1.245150 3.951697 2.565515 165.295600 5.039409 2.940967 
1.245047 3.951785 2.565523 165.289800 5.046239 2.922293 
1.245149 3.951448 2.565598 165.280900 5.030406 2.904290 
1.244829 3.951848 2.565767 165.305300 5.041409 2.978761 
1.244938 3.951903 2.565772 165.288100 5.061814 2.941613 
1.245143 3.951871 2.565781 165.290000 5.049118 2.907842 
1.244935 3.951951 2.565708 165.278900 5.076216 2.889518 
1.244963 3.952005 2.565669 165.279000 5.065094 2.955606 
1.245064 3.951945 2.565566 165.298400 5.067582 2.970288 
1.244988 3.951871 2.565385 165.294800 5.080978 2.979914 
1.245218 3.951794 2.565237 165.301300 5.072708 2.965863 
1.245177 3.951978 2.565159 165.295400 5.103817 2.964910 
1.245351 3.951785 2.564840 165.293800 5.070192 2.960881 
1.245651 3.951774 2.564350 165.305200 5.094813 3.035316 
1.246198 3.951592 2.563570 165.299800 5.096236 3.022349 
1.246795 3.951549 2.562935 165.284100 5.119488 3.028911 
1.247097 3.951616 2.562465 165.270300 5.143977 3.061985 
1.247453 3.951525 2.561763 165.221000 5.130983 3.027559 
1.247694 3.951388 2.561067 165.126200 5.129803 3.008741 
1.247577 3.951663 2.559908 164.985200 5.150516 3.032622 
1.248097 3.951581 2.558873 164.841200 5.127831 2.987707 
1.248520 3.951388 2.557616 164.675500 5.132218 2.997917 
1.248489 3.951419 2.556303 164.522200 5.174463 3.011948 
1.248194 3.951019 2.554369 164.334500 5.175984 2.952976 
1.247568 3.950974 2.553258 164.231900 5.216246 2.982282 
1.246816 3.950911 2.553036 164.102300 5.231486 2.921881 
1.245481 3.950925 2.553025 163.927200 5.220504 2.934613 
1.244088 3.951402 2.553275 163.625300 5.267484 2.938866 
1.242570 3.951353 2.554044 163.352400 5.236130 2.930994 
1.239922 3.951492 2.555087 162.965900 5.249631 2.875207 
1.237316 3.951448 2.556874 162.561900 5.172789 2.831905 
1.233884 3.951399 2.558321 161.991800 5.148753 2.817933 
